PathFileType	4	(X/Y/Z)	C:\Users\italobelli\Desktop\GitHub\PTbot_officialCBL\Personal_Results\SHRUG03_noisy1.trc
DataRate	CameraRate	NumFrames	NumMarkers	Units	OrigDataRate	OrigDataStartFrame	OrigNumFrames
110.888889	110.888889	21	9	m	110.888889	63	500
Frame#	Time		gu		centelbow		EpL		centpxt8		centijc7		ts		aa		ai		ij
			X1	Y1	Z1	X2	Y2	Z2	X3	Y3	Z3	X4	Y4	Z4	X5	Y5	Z5	X6	Y6	Z6	X7	Y7	Z7	X8	Y8	Z8	X9	Y9	Z9

63	0.55912	-0.077642	-0.0099687	0.16678	-0.11032	-0.25505	0.2034	-0.089201	-0.25073	0.22738	-0.046816	-0.15316	-0.008669	-0.046816	0.031938	-0.008669	-0.13647	0.033369	0.057795	-0.10287	0.028221	0.17218	-0.15996	-0.077441	0.065018	0	0	0
64	0.56814	-0.0775	-0.0095553	0.16671	-0.11034	-0.25467	0.20343	-0.089218	-0.25035	0.2274	-0.046816	-0.15316	-0.008669	-0.046816	0.031938	-0.008669	-0.13628	0.033755	0.05772	-0.10267	0.028726	0.17212	-0.15989	-0.077031	0.065109	0	0	0
65	0.57715	-0.077352	-0.0091297	0.16663	-0.11037	-0.25427	0.20345	-0.08924	-0.24997	0.22742	-0.046816	-0.15316	-0.008669	-0.046816	0.031938	-0.008669	-0.13609	0.034162	0.057643	-0.10245	0.029248	0.17205	-0.15982	-0.0766	0.065204	0	0	0
66	0.58617	-0.077198	-0.0086923	0.16654	-0.11041	-0.25386	0.20348	-0.089267	-0.24957	0.22744	-0.046816	-0.15316	-0.008669	-0.046816	0.031938	-0.008669	-0.13589	0.034588	0.057564	-0.10223	0.029788	0.17198	-0.15974	-0.076151	0.065302	0	0	0
67	0.59519	-0.077039	-0.0082434	0.16645	-0.11045	-0.25343	0.20351	-0.089299	-0.24915	0.22747	-0.046816	-0.15316	-0.008669	-0.046816	0.031938	-0.008669	-0.13568	0.035032	0.057483	-0.10201	0.030344	0.1719	-0.15966	-0.075684	0.065405	0	0	0
68	0.60421	-0.076875	-0.0077835	0.16636	-0.1105	-0.253	0.20354	-0.089335	-0.24873	0.22749	-0.046816	-0.15316	-0.008669	-0.046816	0.031938	-0.008669	-0.13547	0.035492	0.0574	-0.10177	0.030915	0.17182	-0.15958	-0.0752	0.065511	0	0	0
69	0.61323	-0.076706	-0.007313	0.16627	-0.11055	-0.25255	0.20357	-0.089376	-0.24829	0.22752	-0.046816	-0.15316	-0.008669	-0.046816	0.031938	-0.008669	-0.13524	0.035969	0.057315	-0.10153	0.031502	0.17174	-0.15949	-0.074701	0.065621	0	0	0
70	0.62224	-0.076532	-0.0068323	0.16617	-0.1106	-0.2521	0.2036	-0.089421	-0.24784	0.22755	-0.046816	-0.15316	-0.008669	-0.046816	0.031938	-0.008669	-0.13501	0.03646	0.057228	-0.10128	0.032102	0.17166	-0.1594	-0.074187	0.065735	0	0	0
71	0.63126	-0.076355	-0.0063418	0.16607	-0.11066	-0.25163	0.20364	-0.08947	-0.24738	0.22758	-0.046816	-0.15316	-0.008669	-0.046816	0.031938	-0.008669	-0.13478	0.036964	0.057139	-0.10102	0.032715	0.17157	-0.15931	-0.07366	0.065853	0	0	0
72	0.64028	-0.076173	-0.005842	0.16596	-0.11073	-0.25115	0.20368	-0.089522	-0.24691	0.22761	-0.046816	-0.15316	-0.008669	-0.046816	0.031938	-0.008669	-0.13453	0.03748	0.057049	-0.10076	0.033341	0.17148	-0.15922	-0.073121	0.065974	0	0	0
73	0.6493	-0.075988	-0.0053332	0.16586	-0.11079	-0.25066	0.20372	-0.089578	-0.24643	0.22764	-0.046816	-0.15316	-0.008669	-0.046816	0.031938	-0.008669	-0.13429	0.038007	0.056957	-0.10049	0.03398	0.17139	-0.15912	-0.07257	0.066098	0	0	0
74	0.65832	-0.075799	-0.0048158	0.16575	-0.11086	-0.25017	0.20376	-0.089636	-0.24594	0.22768	-0.046816	-0.15316	-0.008669	-0.046816	0.031938	-0.008669	-0.13403	0.038544	0.056863	-0.10021	0.034629	0.17129	-0.15903	-0.072009	0.066226	0	0	0
75	0.66733	-0.075607	-0.0042903	0.16564	-0.11094	-0.24966	0.20381	-0.089698	-0.24544	0.22772	-0.046816	-0.15316	-0.008669	-0.046816	0.031938	-0.008669	-0.13378	0.039089	0.056768	-0.099936	0.035289	0.1712	-0.15893	-0.071439	0.066357	0	0	0
76	0.67635	-0.075412	-0.0037571	0.16553	-0.11102	-0.24915	0.20385	-0.089762	-0.24493	0.22776	-0.046816	-0.15316	-0.008669	-0.046816	0.031938	-0.008669	-0.13352	0.039642	0.056672	-0.099655	0.035958	0.1711	-0.15883	-0.070861	0.066491	0	0	0
77	0.68537	-0.075215	-0.0032166	0.16542	-0.1111	-0.24863	0.2039	-0.089828	-0.24441	0.2278	-0.046816	-0.15316	-0.008669	-0.046816	0.031938	-0.008669	-0.13326	0.040202	0.056574	-0.099369	0.036637	0.171	-0.15872	-0.070275	0.066629	0	0	0
78	0.69439	-0.075016	-0.0026692	0.16531	-0.11118	-0.2481	0.20395	-0.089897	-0.24388	0.22784	-0.046816	-0.15316	-0.008669	-0.046816	0.031938	-0.008669	-0.13299	0.040766	0.056475	-0.099081	0.037323	0.17089	-0.15861	-0.069684	0.066769	0	0	0
79	0.70341	-0.074814	-0.0021153	0.16519	-0.11126	-0.24756	0.204	-0.089967	-0.24335	0.22788	-0.046816	-0.15316	-0.008669	-0.046816	0.031938	-0.008669	-0.13272	0.041334	0.056375	-0.098789	0.038018	0.17079	-0.15851	-0.069088	0.066912	0	0	0
80	0.71242	-0.074611	-0.0015553	0.16508	-0.11135	-0.24702	0.20406	-0.090039	-0.24281	0.22793	-0.046816	-0.15316	-0.008669	-0.046816	0.031938	-0.008669	-0.13246	0.041905	0.056274	-0.098496	0.038719	0.17068	-0.1584	-0.068488	0.067058	0	0	0
81	0.72144	-0.074406	-0.00098966	0.16496	-0.11143	-0.24647	0.20411	-0.090112	-0.24226	0.22797	-0.046816	-0.15316	-0.008669	-0.046816	0.031938	-0.008669	-0.13219	0.042478	0.056171	-0.098201	0.039427	0.17057	-0.15828	-0.067885	0.067207	0	0	0
82	0.73046	-0.0742	-0.00041876	0.16484	-0.11152	-0.24591	0.20417	-0.090187	-0.2417	0.22802	-0.046816	-0.15316	-0.008669	-0.046816	0.031938	-0.008669	-0.13192	0.043051	0.056068	-0.097905	0.04014	0.17046	-0.15817	-0.067281	0.067359	0	0	0
83	0.73948	-0.073994	0.00015697	0.16473	-0.11161	-0.24535	0.20423	-0.090262	-0.24113	0.22807	-0.046816	-0.15316	-0.008669	-0.046816	0.031938	-0.008669	-0.13165	0.043623	0.055965	-0.097608	0.040858	0.17034	-0.15806	-0.066676	0.067513	0	0	0
